<?xml version="1.0" encoding="UTF-8" standalone="no"?>
<!-- Created with Inkscape (http://www.inkscape.org/) -->

<svg
   xmlns:dc="http://purl.org/dc/elements/1.1/"
   xmlns:cc="http://creativecommons.org/ns#"
   xmlns:rdf="http://www.w3.org/1999/02/22-rdf-syntax-ns#"
   xmlns:svg="http://www.w3.org/2000/svg"
   xmlns="http://www.w3.org/2000/svg"
   xmlns:sodipodi="http://sodipodi.sourceforge.net/DTD/sodipodi-0.dtd"
   xmlns:inkscape="http://www.inkscape.org/namespaces/inkscape"
   version="1.1"
   id="svg815"
   width="322.11356"
   height="322.11356"
   viewBox="0 0 322.11355 322.11355"
   sodipodi:docname="memo.svg"
   inkscape:version="0.92.3 (2405546, 2018-03-11)">
  <metadata
     id="metadata821">
    <rdf:RDF>
      <cc:Work
         rdf:about="">
        <dc:format>image/svg+xml</dc:format>
        <dc:type
           rdf:resource="http://purl.org/dc/dcmitype/StillImage" />
        <dc:title></dc:title>
      </cc:Work>
    </rdf:RDF>
  </metadata>
  <defs
     id="defs819" />
  <sodipodi:namedview
     pagecolor="#ffffff"
     bordercolor="#666666"
     borderopacity="1"
     objecttolerance="10"
     gridtolerance="1"
     guidetolerance="36"
     inkscape:pageopacity="0"
     inkscape:pageshadow="2"
     inkscape:window-width="2560"
     inkscape:window-height="1316"
     id="namedview817"
     showgrid="true"
     inkscape:zoom="1.4142136"
     inkscape:cx="95.392493"
     inkscape:cy="110.40733"
     inkscape:window-x="0"
     inkscape:window-y="68"
     inkscape:window-maximized="1"
     inkscape:current-layer="layer7"
     fit-margin-top="0"
     fit-margin-left="0"
     fit-margin-right="0"
     fit-margin-bottom="0" />
  <g
     inkscape:groupmode="layer"
     id="layer7"
     inkscape:label="merge"
     transform="translate(-5.6692972,-5.6692972)">
    <circle
       style="display:inline;fill:#b5bfc7;fill-opacity:1;stroke:#000000;stroke-width:26.45669365;stroke-miterlimit:4;stroke-dasharray:none;stroke-opacity:1"
       id="path3034"
       cx="166.72607"
       cy="166.72607"
       r="147.82843" />
    <path
       style="display:inline;fill:#000000;fill-opacity:1;fill-rule:evenodd;stroke:none;stroke-width:1.19510007px;stroke-linecap:butt;stroke-linejoin:miter;stroke-opacity:1"
       d="m 186.89621,79.352713 c -14.35814,0.0804 -28.87373,2.83014 -42.26033,7.04921 -5.20926,1.6039 -10.35567,3.36449 -15.40792,5.3056 -29.785031,11.443567 -56.292511,29.173107 -73.043501,58.195777 -3.42322,12.18607 -20.07373,24.38957 -8.3657,35.853 13.28997,2.65854 23.83411,0.56962 37.04811,3.5853 13.07301,4.04598 27.487301,8.36571 35.853001,10.75591 18.50964,8.29121 26.74328,15.73182 33.4628,29.8775 7.46192,26.48531 11.4266,58.11904 -26.66306,73.01754 16.0378,8.31445 63.02764,5.31273 68.68228,6.3208 25.67309,-4.80114 45.25959,-16.07694 78.40602,-41.66813 0,0 2.9183,5.78095 4.297,-23.89154 1.38602,-23.9116 -2.56258,-47.61131 -5.92882,-71.20884 -4.98147,-27.75871 -10.99767,-59.04152 -34.21907,-77.714187 -15.20074,-11.27169 -33.40036,-15.58134 -51.86081,-15.47794 z"
       id="path826"
       inkscape:connector-curvature="0"
       sodipodi:nodetypes="scscccccccccccs" />
    <path
       style="display:inline;fill:#ffffff;fill-rule:evenodd;stroke:none;stroke-width:1.19510007px;stroke-linecap:butt;stroke-linejoin:miter;stroke-opacity:1"
       d="m 148.59478,91.068033 c 13.00844,-5.26622 27.80817,-6.5159 41.4409,-4.50549 32.50472,5.08201 52.60756,22.055057 65.7305,47.804017 5.9755,11.951 10.18048,20.01353 13.05216,32.36492 -5.09548,15.60375 -13.05216,27.39008 -22.38949,35.20527 -24.69899,17.80284 -57.16639,16.6572 -82.50172,14.86968 -6.86517,-0.50191 -15.32428,-5.36965 -19.8596,-9.98457 -5.23549,-4.85953 -10.76865,-9.47923 -16.99826,-13.02035 -6.99195,-22.46648 -2.03051,-46.11795 0.008,-68.93222 1.37257,-12.73621 6.96118,-26.102847 18.79971,-32.387667 0.8873,-0.50605 1.79473,-0.97663 2.71798,-1.41359 z"
       id="path846"
       inkscape:connector-curvature="0"
       sodipodi:nodetypes="cccccccccccc" />
    <path
       style="display:inline;fill:#ec6224;fill-opacity:1;fill-rule:evenodd;stroke:none;stroke-width:1.19510007px;stroke-linecap:butt;stroke-linejoin:miter;stroke-opacity:1"
       d="m 123.70065,159.1553 c 2.43373,-0.26981 8.87616,-0.9331 11.59109,-1.06854 2.32246,-0.1158 10.15769,0.1767 10.64067,4.84353 0.0713,3.4486 -5.39412,6.64129 -11.08707,6.83862 -2.65091,0.0999 -8.10162,-0.94946 -11.40549,-1.35406 0.007,-1.42925 0.0167,-2.8709 0.052,-4.39186 0.0353,-1.52094 0.0966,-3.12121 0.2088,-4.86769 z"
       id="path4565"
       inkscape:connector-curvature="0"
       sodipodi:nodetypes="cscccsc" />
    <path
       style="display:inline;fill:#999999;fill-opacity:1;fill-rule:evenodd;stroke:none;stroke-width:1.19510007px;stroke-linecap:butt;stroke-linejoin:miter;stroke-opacity:1"
       d="m 126.07587,173.42796 c 0,0 2.85465,13.54051 7.64864,18.79283 5.63691,6.17584 13.74538,8.72084 21.77758,11.04708 6.19276,1.79351 19.39415,0.71664 19.39415,0.71664 0,0 -14.20062,-8.77517 -19.48237,-19.04944 -2.81009,-5.4663 -7.25797,-15.40358 -7.25797,-15.40358 0,0 -6.40159,3.70665 -10.69674,4.76961 -3.81709,0.94465 -11.38329,-0.87314 -11.38329,-0.87314 z"
       id="path4654"
       inkscape:connector-curvature="0"
       sodipodi:nodetypes="csscscsc" />
    <path
       style="display:inline;fill:#e42426;fill-opacity:1;fill-rule:evenodd;stroke:none;stroke-width:1.19510007px;stroke-linecap:butt;stroke-linejoin:miter;stroke-opacity:1"
       d="m 141.34468,90.349033 c -1.16227,0.0372 -2.43318,0.1121 -3.80471,0.22641 -2.00997,6e-5 -4.91406,0.20785 -8.31654,1.14813 -9.28708,2.56649 -24.38638,9.566247 -36.944041,16.699197 -3.7862,2.15061 -7.34134,4.31332 -10.43647,6.37029 -7.91872,5.26264 -11.82526,10.0692 -18.46218,17.10204 -7.45223,7.81409 -14.52044,17.67548 -18.42835,30.18095 -2.72282,8.31868 -6.1697,18.7712 -6.41199,26.00977 2.78909,-0.46431 3.57187,-0.90773 4.09415,-1.11808 12.06912,2.73238 26.83399,5.59294 37.36555,7.91054 0.82959,0.18256 1.78249,0.39706 2.57158,0.57764 3.37262,0.77183 6.38315,1.51814 9.22111,2.20286 6.47214,1.56155 12.046781,2.80269 18.971801,3.29537 1.01784,-0.11019 2.59155,-0.16607 4.2786,-0.17672 3.81165,-0.024 8.20188,0.18276 8.06688,0.51518 1.58181,-0.59565 4.36808,-3.67672 3.97511,-7.48106 0.0968,-6.81176 -3.769,-18.32228 -3.64599,-25.39587 -0.26623,-2.82037 0.13868,-4.48312 0.26143,-9.25969 0.29709,-6.70092 1.38169,-11.12214 2.44622,-20.60614 3.26192,-22.76199 9.13003,-33.0225 12.54855,-38.17552 1.76688,-2.663337 7.39779,-8.024027 9.89926,-9.306377 -1.26107,-0.59388 -3.76316,-0.83044 -7.24997,-0.71892 z"
       id="path4648"
       inkscape:connector-curvature="0"
       sodipodi:nodetypes="ccsssccccssscscccccccc" />
    <path
       inkscape:connector-curvature="0"
       style="display:inline;fill:#fdc70f;fill-opacity:1;fill-rule:evenodd;stroke:none;stroke-width:1.19510007px;stroke-linecap:butt;stroke-linejoin:miter;stroke-opacity:1"
       d="m 143.77289,90.329563 c -0.74461,-0.0158 -1.55585,-0.01 -2.42755,0.0186 -1.16227,0.0372 -2.43318,0.1121 -3.80471,0.22641 -2.00997,6e-5 -4.9142,0.20814 -8.31669,1.14842 -9.28708,2.56649 -24.38541,9.565787 -36.943071,16.698737 0,0 -23.46646,35.66031 -23.05468,49.634 0.44681,15.16277 22.56684,39.60169 22.56684,39.6017 6.47214,1.56153 12.047201,2.80318 18.972221,3.29586 1.01784,-0.11019 2.5915,-0.16675 4.27855,-0.1774 3.81165,-0.024 8.20193,0.18343 8.06693,0.51585 1.58181,-0.59565 4.36808,-3.6767 3.9751,-7.48105 0.0968,-6.81176 -3.769,-18.32228 -3.64598,-25.39588 -0.26624,-2.82036 0.13868,-4.48312 0.26142,-9.25968 0.29709,-6.70093 1.3817,-11.12214 2.44623,-20.60615 3.26192,-22.76198 9.13003,-33.0225 12.54855,-38.17552 1.76687,-2.663337 7.39779,-8.024017 9.89926,-9.306367 -0.94581,-0.44542 -2.5886,-0.69028 -4.82242,-0.73761 z"
       id="path4648-3"
       sodipodi:nodetypes="cccscscccccccccccc" />
    <path
       style="display:inline;fill:#2072b2;fill-opacity:1;fill-rule:evenodd;stroke:none;stroke-width:1.19510007px;stroke-linecap:butt;stroke-linejoin:miter;stroke-opacity:1"
       d="m 98.478969,112.23171 c -12.02656,13.57182 -20.85216,30.05832 -20.44039,44.03202 0.44681,15.16277 19.57545,34.06905 25.705221,38.85502 7.3452,5.73496 14.83896,5.12952 16.97607,4.97831 6.86948,-3.757 -2.13128,-6.65001 -2.26609,-37.57301 -0.0287,-6.58333 -0.0656,-53.41057 21.47909,-69.237717 -18.80708,1.6023 -32.27364,8.585577 -41.453901,18.945377 z"
       id="path4726-5"
       inkscape:connector-curvature="0"
       sodipodi:nodetypes="ssscscs" />
    <path
       style="display:inline;fill:#000000;fill-opacity:1;fill-rule:evenodd;stroke:none;stroke-width:1.19510007px;stroke-linecap:butt;stroke-linejoin:miter;stroke-opacity:1"
       d="m 49.499339,181.46249 c 0,0 10.99485,-8.89383 39.4552,-14.4653 22.298831,-4.36527 34.746091,-7.84189 34.746091,-7.84189 l -0.26078,9.25955 c 0,0 -8.20048,-2.20522 -33.971301,2.02571 -23.77208,3.90279 -39.96921,11.02193 -39.96921,11.02193 z"
       id="path4777"
       inkscape:connector-curvature="0"
       sodipodi:nodetypes="csccsc" />
    <path
       style="fill:#999999;fill-opacity:1;fill-rule:evenodd;stroke:none;stroke-width:1.91857338px;stroke-linecap:butt;stroke-linejoin:miter;stroke-opacity:1"
       d="m 180.23491,125.2009 c 2.3426,-5.70102 4.62792,-10.42925 9.17393,-16.05437 2.59501,-3.21101 5.48565,-7.5657 9.82922,-7.53575 3.2628,0.0225 2.60121,5.14396 3.2764,7.86338 0.77803,3.13369 4.28809,5.93816 6.46026,8.71059 2.09841,2.67829 3.99054,5.65379 5.83789,10.44476 1.99939,5.18516 8.27731,9.07445 12.17187,11.72718 5.07082,3.45392 4.61936,3.28529 10.98324,7.48799 6.7149,4.4345 14.11643,11.99049 14.32438,14.6234 0.16107,2.64069 -7.10123,-2.76251 -19.80121,-6.93838 -9.01041,-3.82659 -12.57013,-4.41697 -20.47484,-1.00498 -4.99802,2.22398 -12.91706,2.50681 -16.38202,2.29349 -3.60879,-0.22221 -8.81935,-2.52037 -11.41946,-5.33823 -2.94618,-3.1929 -4.57439,-5.63696 -5.52188,-11.38448 -0.55157,-3.34576 0.25344,-11.75818 1.54222,-14.8946 z"
       id="path4562"
       inkscape:connector-curvature="0"
       sodipodi:nodetypes="sssssssscccssss" />
    <circle
       style="opacity:1;fill:#000000;fill-opacity:1;stroke:none;stroke-width:0.72513008;stroke-linecap:butt;stroke-miterlimit:4;stroke-dasharray:none;stroke-opacity:1"
       id="path4544"
       cx="197.11884"
       cy="136.31183"
       r="14.016446" />
  </g>
</svg>
